<?xml version="1.0" encoding="UTF-8" standalone="no"?>
<!--?xml version="1.0" encoding="utf-8"?-->

<!-- Svg Vector Icons : http://www.onlinewebfonts.com/icon -->

<svg
   version="1.1"
   x="0px"
   y="0px"
   viewBox="0 0 150 150"
   enable-background="new 0 0 256 256"
   xml:space="preserve"
   id="svg2"
   sodipodi:docname="boot.svg"
   inkscape:version="1.3.2 (091e20ef0f, 2023-11-25, custom)"
   width="150"
   height="150"
   xmlns:inkscape="http://www.inkscape.org/namespaces/inkscape"
   xmlns:sodipodi="http://sodipodi.sourceforge.net/DTD/sodipodi-0.dtd"
   xmlns="http://www.w3.org/2000/svg"
   xmlns:svg="http://www.w3.org/2000/svg"><defs
   id="defs2" /><sodipodi:namedview
   id="namedview2"
   pagecolor="#505050"
   bordercolor="#eeeeee"
   borderopacity="1"
   inkscape:showpageshadow="0"
   inkscape:pageopacity="0"
   inkscape:pagecheckerboard="0"
   inkscape:deskcolor="#505050"
   inkscape:zoom="2.665406"
   inkscape:cx="128.12307"
   inkscape:cy="127.93548"
   inkscape:window-width="1920"
   inkscape:window-height="1014"
   inkscape:window-x="0"
   inkscape:window-y="0"
   inkscape:window-maximized="1"
   inkscape:current-layer="g2" />
<metadata
   id="metadata1"> Svg Vector Icons : http://www.onlinewebfonts.com/icon </metadata>
<g
   id="g2"
   transform="matrix(0.84709869,0,0,0.84709869,-8.4709869,-8.5556968)"
   style="display:inline"><g
     id="g1"
     transform="matrix(0.75,0,0,0.75,2.4999997,2.5249997)"><path
       fill="#ffffff"
       data-title="Layer 0"
       xs="0"
       d="m 245,245.5 c -28.4,-16.6 -58.2,-32.1 -90.6,-39.2 -0.1,-16.4 1.9,-34.4 -9,-48.2 -5.7,-9.7 -20,-14.2 -28.8,-5.8 -14.4,13.3 -16.9,35.4 -13,53.8 C 69.9,212.3 40.1,229.9 10,245.3 36,196 64.3,147.8 89,97.8 c 3.5,-7.4 6.7,-18 14.9,-8 4.7,3.2 19.6,12.5 19.5,9.7 -7.2,-7.9 -23.4,-14.9 -22.6,-25.6 9.6,-21 17.8,-42.8 27.3,-63.8 8.9,17.7 15.7,36.7 24.3,54.7 20.4,43.6 43.6,85.9 65.8,128.6 -7.2,-2.9 -22.7,-11.1 -24.6,-8.8 11.5,7.8 23.9,15 33.4,25.2 6.9,11.5 13.3,23.3 19.1,35.4 v 1 z"
       id="path1" /></g></g>
</svg>
