<?xml version="1.0" encoding="UTF-8" standalone="no"?>
<svg viewBox="0 0 50 50"
 xmlns="http://www.w3.org/2000/svg" xmlns:xlink="http://www.w3.org/1999/xlink"  version="1.2" baseProfile="tiny">
<title>Qt SVG Document</title>
<desc>Generated with Qt</desc>
<defs>
</defs>
<g fill="none" stroke="black" stroke-width="1" fill-rule="evenodd" stroke-linecap="square" stroke-linejoin="bevel" >

<g fill="#000000" fill-opacity="1" stroke="none" transform="matrix(2.27273,0,0,2.27273,-68.1804,-0.00146302)"
font-family="Noto Sans" font-size="10" font-weight="400" font-style="normal" 
opacity="0" >
<rect x="29.9994" y="0.00064373" width="22" height="22"/>
</g>

<g fill="#323232" fill-opacity="1" stroke="none" transform="matrix(2.27273,0,0,2.27273,-68.1818,-1.68218e-06)"
font-family="Noto Sans" font-size="10" font-weight="400" font-style="normal" 
opacity="0.3" >
<path vector-effect="none" fill-rule="nonzero" d="M42,11 C41.7444,11 41.4888,11.0991 41.293,11.2949 C40.9012,11.6867 40.9012,12.3172 41.293,12.709 L44.1211,15.5371 L42.5371,15.5371 C41.9831,15.5371 41.5371,15.9831 41.5371,16.5371 C41.5371,17.0911 41.9831,17.5371 42.5371,17.5371 L46.5371,17.5371 C47.0911,17.5371 47.5371,17.0911 47.5371,16.5371 L47.5371,12.5371 C47.5371,11.9831 47.0911,11.5371 46.5371,11.5371 C45.9831,11.5371 45.5371,11.9831 45.5371,12.5371 L45.5371,14.125 L42.707,11.2949 C42.5112,11.0991 42.2556,11 42,11 "/>
</g>

<g fill="#323232" fill-opacity="1" stroke="none" transform="matrix(2.27273,0,0,2.27273,-68.1818,-1.72764e-06)"
font-family="Noto Sans" font-size="10" font-weight="400" font-style="normal" 
opacity="0.3" >
<path vector-effect="none" fill-rule="nonzero" d="M35.4629,4.46289 C34.9089,4.46289 34.4629,4.90889 34.4629,5.46289 L34.4629,9.46289 C34.4629,10.0169 34.9089,10.4629 35.4629,10.4629 C36.0169,10.4629 36.4629,10.0169 36.4629,9.46289 L36.4629,7.87891 L39.291,10.707 C39.6828,11.0988 40.3133,11.0988 40.7051,10.707 C41.0968,10.3153 41.0968,9.68471 40.7051,9.29297 L37.875,6.46289 L39.4629,6.46289 C40.0169,6.46289 40.4629,6.01689 40.4629,5.46289 C40.4629,4.90889 40.0169,4.46289 39.4629,4.46289 L35.4629,4.46289"/>
</g>

<g fill="none" stroke="#000000" stroke-opacity="1" stroke-width="1" stroke-linecap="square" stroke-linejoin="bevel" transform="matrix(1,0,0,1,0,0)"
font-family="Noto Sans" font-size="10" font-weight="400" font-style="normal" 
>
</g>
</g>
</svg>
