<?xml version="1.0" encoding="UTF-8" standalone="no"?>
<svg viewBox="0 0 50 50"
 xmlns="http://www.w3.org/2000/svg" xmlns:xlink="http://www.w3.org/1999/xlink"  version="1.2" baseProfile="tiny">
<title>Qt SVG Document</title>
<desc>Generated with Qt</desc>
<defs>
</defs>
<g fill="none" stroke="black" stroke-width="1" fill-rule="evenodd" stroke-linecap="square" stroke-linejoin="bevel" >

<g fill="none" stroke="none" transform="matrix(2.27273,0,0,2.27273,-7.08136e-07,-122.727)"
font-family="Noto Sans" font-size="10" font-weight="400" font-style="normal" 
>
<rect x="3.1158e-07" y="54" width="22" height="22"/>
</g>

<g fill="#f0af19" fill-opacity="1" stroke="none" transform="matrix(2.27273,0,0,2.27273,-7.08136e-07,-122.727)"
font-family="Noto Sans" font-size="10" font-weight="400" font-style="normal" 
>
<path vector-effect="none" fill-rule="evenodd" d="M1,59 C1,56.7909 2.79086,55 5,55 L17,55 C19.2091,55 21,56.7909 21,59 L21,71 C21,73.2091 19.2091,75 17,75 L5,75 C2.79086,75 1,73.2091 1,71 L1,59"/>
</g>

<g fill="#ebebeb" fill-opacity="1" stroke="none" transform="matrix(2.27273,0,0,2.27273,-7.08136e-07,-122.727)"
font-family="Noto Sans" font-size="10" font-weight="400" font-style="normal" 
>
<path vector-effect="none" fill-rule="evenodd" d="M4,65 C4,64.1716 4.65814,63.5 5.47,63.5 L16.53,63.5 C17.3419,63.5 18,64.1716 18,65 C18,65.8284 17.3419,66.5 16.53,66.5 L5.47,66.5 C4.65814,66.5 4,65.8284 4,65 "/>
</g>

<g fill="none" stroke="#000000" stroke-opacity="1" stroke-width="1" stroke-linecap="square" stroke-linejoin="bevel" transform="matrix(1,0,0,1,0,0)"
font-family="Noto Sans" font-size="10" font-weight="400" font-style="normal" 
>
</g>
</g>
</svg>
