<?xml version="1.0" encoding="UTF-8" standalone="no"?>
<svg viewBox="0 0 50 50"
 xmlns="http://www.w3.org/2000/svg" xmlns:xlink="http://www.w3.org/1999/xlink"  version="1.2" baseProfile="tiny">
<title>Qt SVG Document</title>
<desc>Generated with Qt</desc>
<defs>
</defs>
<g fill="none" stroke="black" stroke-width="1" fill-rule="evenodd" stroke-linecap="square" stroke-linejoin="bevel" >

<g fill="#000000" fill-opacity="1" stroke="none" transform="matrix(2.27273,0,0,2.27273,-63.6364,0)"
font-family="Noto Sans" font-size="10" font-weight="400" font-style="normal" 
opacity="0.00100002" >
<rect x="28" y="0" width="22" height="22"/>
</g>

<g fill="#323232" fill-opacity="1" stroke="none" transform="matrix(2.27273,0,0,2.27273,-63.6364,0)"
font-family="Noto Sans" font-size="10" font-weight="400" font-style="normal" 
opacity="0.3" >
<path vector-effect="none" fill-rule="evenodd" d="M34.0508,4.51367 C33.6887,4.51367 33.3263,4.65416 33.0488,4.93164 L32.9316,5.04883 C32.3767,5.60379 32.3767,6.49777 32.9316,7.05273 L36.8789,11 L32.9316,14.9473 C32.3767,15.5022 32.3767,16.3962 32.9316,16.9512 L33.0488,17.0684 C33.6038,17.6233 34.4978,17.6233 35.0527,17.0684 L39,13.1211 L42.9473,17.0684 C43.5022,17.6233 44.3962,17.6233 44.9512,17.0684 L45.0684,16.9512 C45.6233,16.3962 45.6233,15.5022 45.0684,14.9473 L41.1211,11 L45.0684,7.05273 C45.6233,6.49777 45.6233,5.60379 45.0684,5.04883 L44.9512,4.93164 C44.3962,4.37668 43.5022,4.37668 42.9473,4.93164 L39,8.87891 L35.0527,4.93164 C34.7753,4.65416 34.4129,4.51367 34.0508,4.51367 "/>
</g>

<g fill="none" stroke="#000000" stroke-opacity="1" stroke-width="1" stroke-linecap="square" stroke-linejoin="bevel" transform="matrix(1,0,0,1,0,0)"
font-family="Noto Sans" font-size="10" font-weight="400" font-style="normal" 
>
</g>
</g>
</svg>
