<?xml version="1.0" encoding="UTF-8" standalone="no"?>
<svg viewBox="0 0 50 50"
 xmlns="http://www.w3.org/2000/svg" xmlns:xlink="http://www.w3.org/1999/xlink"  version="1.2" baseProfile="tiny">
<title>Qt SVG Document</title>
<desc>Generated with Qt</desc>
<defs>
</defs>
<g fill="none" stroke="black" stroke-width="1" fill-rule="evenodd" stroke-linecap="square" stroke-linejoin="bevel" >

<g fill="none" stroke="none" transform="matrix(2.27273,0,0,2.27273,0,-129.545)"
font-family="Noto Sans" font-size="10" font-weight="400" font-style="normal" 
>
<rect x="0" y="57" width="22" height="22"/>
</g>

<g fill="#64c83c" fill-opacity="1" stroke="none" transform="matrix(2.27273,0,0,2.27273,0,-129.545)"
font-family="Noto Sans" font-size="10" font-weight="400" font-style="normal" 
>
<path vector-effect="none" fill-rule="evenodd" d="M1,62 C1,59.7909 2.79086,58 5,58 L17,58 C19.2091,58 21,59.7909 21,62 L21,74 C21,76.2091 19.2091,78 17,78 L5,78 C2.79086,78 1,76.2091 1,74 L1,62"/>
</g>

<g fill="#ebebeb" fill-opacity="1" stroke="none" transform="matrix(-1.60706,-1.60706,1.60706,-1.60706,62.5849,1.22125)"
font-family="Noto Sans" font-size="10" font-weight="400" font-style="normal" 
>
<path vector-effect="none" fill-rule="evenodd" d="M-4.53425,-19.0919 C-4.53425,-19.6442 -4.09549,-20.0919 -3.55425,-20.0919 L1.48575,-20.0919 C2.02699,-20.0919 2.46575,-19.6442 2.46575,-19.0919 C2.46575,-18.5396 2.02699,-18.0919 1.48575,-18.0919 L-3.55425,-18.0919 C-4.09549,-18.0919 -4.53425,-18.5396 -4.53425,-19.0919 "/>
</g>

<g fill="#ebebeb" fill-opacity="1" stroke="none" transform="matrix(-2.27273,0,0,2.27273,62.5849,1.22125)"
font-family="Noto Sans" font-size="10" font-weight="400" font-style="normal" 
>
<path vector-effect="none" fill-rule="evenodd" d="M10.5374,11.4626 C10.5374,10.9104 10.9806,10.4626 11.5274,10.4626 L15.5474,10.4626 C16.0941,10.4626 16.5374,10.9104 16.5374,11.4626 C16.5374,12.0149 16.0941,12.4626 15.5474,12.4626 L11.5274,12.4626 C10.9806,12.4626 10.5374,12.0149 10.5374,11.4626 "/>
</g>

<g fill="#ebebeb" fill-opacity="1" stroke="none" transform="matrix(0,-2.27273,-2.27273,0,62.5849,1.22125)"
font-family="Noto Sans" font-size="10" font-weight="400" font-style="normal" 
>
<path vector-effect="none" fill-rule="evenodd" d="M-16.4626,15.5374 C-16.4626,14.9851 -16.0194,14.5374 -15.4726,14.5374 L-11.4526,14.5374 C-10.9059,14.5374 -10.4626,14.9851 -10.4626,15.5374 C-10.4626,16.0896 -10.9059,16.5374 -11.4526,16.5374 L-15.4726,16.5374 C-16.0194,16.5374 -16.4626,16.0896 -16.4626,15.5374 "/>
</g>

<g fill="#ebebeb" fill-opacity="1" stroke="none" transform="matrix(1.60706,1.60706,-1.60706,1.60706,62.5849,1.22126)"
font-family="Noto Sans" font-size="10" font-weight="400" font-style="normal" 
>
<path vector-effect="none" fill-rule="evenodd" d="M-13.1252,19.0919 C-13.1252,18.5396 -12.6864,18.0919 -12.1452,18.0919 L-7.10518,18.0919 C-6.56394,18.0919 -6.12518,18.5396 -6.12518,19.0919 C-6.12518,19.6442 -6.56394,20.0919 -7.10518,20.0919 L-12.1452,20.0919 C-12.6864,20.0919 -13.1252,19.6442 -13.1252,19.0919 "/>
</g>

<g fill="#ebebeb" fill-opacity="1" stroke="none" transform="matrix(2.27273,0,0,-2.27273,62.5849,1.22126)"
font-family="Noto Sans" font-size="10" font-weight="400" font-style="normal" 
>
<path vector-effect="none" fill-rule="evenodd" d="M-22.5374,-9.46265 C-22.5374,-10.0149 -22.0941,-10.4626 -21.5474,-10.4626 L-17.5274,-10.4626 C-16.9806,-10.4626 -16.5374,-10.0149 -16.5374,-9.46265 C-16.5374,-8.91036 -16.9806,-8.46265 -17.5274,-8.46265 L-21.5474,-8.46265 C-22.0941,-8.46265 -22.5374,-8.91036 -22.5374,-9.46265 "/>
</g>

<g fill="#ebebeb" fill-opacity="1" stroke="none" transform="matrix(0,2.27273,2.27273,0,62.5849,1.22126)"
font-family="Noto Sans" font-size="10" font-weight="400" font-style="normal" 
>
<path vector-effect="none" fill-rule="evenodd" d="M4.46264,-17.5374 C4.46264,-18.0896 4.90588,-18.5374 5.45264,-18.5374 L9.47264,-18.5374 C10.0194,-18.5374 10.4626,-18.0896 10.4626,-17.5374 C10.4626,-16.9851 10.0194,-16.5374 9.47264,-16.5374 L5.45264,-16.5374 C4.90588,-16.5374 4.46264,-16.9851 4.46264,-17.5374 "/>
</g>

<g fill="none" stroke="#000000" stroke-opacity="1" stroke-width="1" stroke-linecap="square" stroke-linejoin="bevel" transform="matrix(1,0,0,1,0,0)"
font-family="Noto Sans" font-size="10" font-weight="400" font-style="normal" 
>
</g>
</g>
</svg>
