<?xml version="1.0" encoding="UTF-8" standalone="no"?>
<svg viewBox="0 0 50 50"
 xmlns="http://www.w3.org/2000/svg" xmlns:xlink="http://www.w3.org/1999/xlink"  version="1.2" baseProfile="tiny">
<title>Qt SVG Document</title>
<desc>Generated with Qt</desc>
<defs>
</defs>
<g fill="none" stroke="black" stroke-width="1" fill-rule="evenodd" stroke-linecap="square" stroke-linejoin="bevel" >

<g fill="none" stroke="none" transform="matrix(2.27273,0,0,2.27273,-5.54479e-07,-61.3636)"
font-family="Noto Sans" font-size="10" font-weight="400" font-style="normal" 
>
<rect x="2.43971e-07" y="27" width="22" height="22"/>
</g>

<g fill="#64c83c" fill-opacity="1" stroke="none" transform="matrix(2.27273,0,0,2.27273,-5.54479e-07,-61.3636)"
font-family="Noto Sans" font-size="10" font-weight="400" font-style="normal" 
>
<path vector-effect="none" fill-rule="evenodd" d="M1,32 C1,29.7909 2.79086,28 5,28 L17,28 C19.2091,28 21,29.7909 21,32 L21,44 C21,46.2091 19.2091,48 17,48 L5,48 C2.79086,48 1,46.2091 1,44 L1,32"/>
</g>

<g fill="#ebebeb" fill-opacity="1" stroke="none" transform="matrix(1.60706,1.60706,-1.60706,1.60706,1.22126,1.22126)"
font-family="Noto Sans" font-size="10" font-weight="400" font-style="normal" 
>
<path vector-effect="none" fill-rule="evenodd" d="M15.2119,0 C15.2119,-0.552285 15.6507,-1 16.1919,-1 L21.2319,-1 C21.7732,-1 22.2119,-0.552285 22.2119,0 C22.2119,0.552285 21.7732,1 21.2319,1 L16.1919,1 C15.6507,1 15.2119,0.552285 15.2119,0 "/>
</g>

<g fill="#ebebeb" fill-opacity="1" stroke="none" transform="matrix(2.27273,0,0,-2.27273,1.22126,1.22126)"
font-family="Noto Sans" font-size="10" font-weight="400" font-style="normal" 
>
<path vector-effect="none" fill-rule="evenodd" d="M11,-16 C11,-16.5523 11.4432,-17 11.99,-17 L16.01,-17 C16.5568,-17 17,-16.5523 17,-16 C17,-15.4477 16.5568,-15 16.01,-15 L11.99,-15 C11.4432,-15 11,-15.4477 11,-16 "/>
</g>

<g fill="#ebebeb" fill-opacity="1" stroke="none" transform="matrix(0,2.27273,2.27273,0,1.22126,1.22126)"
font-family="Noto Sans" font-size="10" font-weight="400" font-style="normal" 
>
<path vector-effect="none" fill-rule="evenodd" d="M11,16 C11,15.4477 11.4432,15 11.99,15 L16.01,15 C16.5568,15 17,15.4477 17,16 C17,16.5523 16.5568,17 16.01,17 L11.99,17 C11.4432,17 11,16.5523 11,16 "/>
</g>

<g fill="#ebebeb" fill-opacity="1" stroke="none" transform="matrix(-1.60706,-1.60706,1.60706,-1.60706,-13.6364,-13.6364)"
font-family="Noto Sans" font-size="10" font-weight="400" font-style="normal" 
>
<path vector-effect="none" fill-rule="evenodd" d="M-23.6261,0 C-23.6261,-0.552285 -23.1874,-1 -22.6461,-1 L-17.6061,-1 C-17.0649,-1 -16.6261,-0.552285 -16.6261,0 C-16.6261,0.552285 -17.0649,1 -17.6061,1 L-22.6461,1 C-23.1874,1 -23.6261,0.552285 -23.6261,0 "/>
</g>

<g fill="#ebebeb" fill-opacity="1" stroke="none" transform="matrix(-2.27273,0,0,2.27273,-13.6364,-13.6364)"
font-family="Noto Sans" font-size="10" font-weight="400" font-style="normal" 
>
<path vector-effect="none" fill-rule="evenodd" d="M-16.4626,11.4626 C-16.4626,10.9104 -16.0194,10.4626 -15.4726,10.4626 L-11.4526,10.4626 C-10.9059,10.4626 -10.4626,10.9104 -10.4626,11.4626 C-10.4626,12.0149 -10.9059,12.4626 -11.4526,12.4626 L-15.4726,12.4626 C-16.0194,12.4626 -16.4626,12.0149 -16.4626,11.4626 "/>
</g>

<g fill="#ebebeb" fill-opacity="1" stroke="none" transform="matrix(0,-2.27273,-2.27273,0,-13.6364,-13.6364)"
font-family="Noto Sans" font-size="10" font-weight="400" font-style="normal" 
>
<path vector-effect="none" fill-rule="evenodd" d="M-16.4626,-11.4626 C-16.4626,-12.0149 -16.0194,-12.4626 -15.4726,-12.4626 L-11.4526,-12.4626 C-10.9059,-12.4626 -10.4626,-12.0149 -10.4626,-11.4626 C-10.4626,-10.9104 -10.9059,-10.4626 -11.4526,-10.4626 L-15.4726,-10.4626 C-16.0194,-10.4626 -16.4626,-10.9104 -16.4626,-11.4626 "/>
</g>

<g fill="none" stroke="#000000" stroke-opacity="1" stroke-width="1" stroke-linecap="square" stroke-linejoin="bevel" transform="matrix(1,0,0,1,0,0)"
font-family="Noto Sans" font-size="10" font-weight="400" font-style="normal" 
>
</g>
</g>
</svg>
