<?xml version="1.0" encoding="UTF-8" standalone="no"?>
<svg viewBox="0 0 50 50"
 xmlns="http://www.w3.org/2000/svg" xmlns:xlink="http://www.w3.org/1999/xlink"  version="1.2" baseProfile="tiny">
<title>Qt SVG Document</title>
<desc>Generated with Qt</desc>
<defs>
</defs>
<g fill="none" stroke="black" stroke-width="1" fill-rule="evenodd" stroke-linecap="square" stroke-linejoin="bevel" >

<g fill="#000000" fill-opacity="1" stroke="none" transform="matrix(2.27273,0,0,2.27273,-68.1818,-2.16744e-06)"
font-family="Noto Sans" font-size="10" font-weight="400" font-style="normal" 
opacity="0" >
<rect x="30" y="9.53674e-07" width="22" height="22"/>
</g>

<g fill="#323232" fill-opacity="1" stroke="none" transform="matrix(2.27273,0,0,2.27273,1.21947,1.22367)"
font-family="Noto Sans" font-size="10" font-weight="400" font-style="normal" 
opacity="0.3" >
<path vector-effect="none" fill-rule="nonzero" d="M15.9996,16.9991 C16.2552,16.9991 16.5107,16.9001 16.7066,16.7042 C17.0983,16.3125 17.0983,15.6819 16.7066,15.2901 L13.8785,12.462 L15.4625,12.462 C16.0165,12.462 16.4625,12.016 16.4625,11.462 C16.4625,10.908 16.0165,10.462 15.4625,10.462 L11.4625,10.462 C10.9085,10.462 10.4625,10.908 10.4625,11.462 L10.4625,15.462 C10.4625,16.016 10.9085,16.462 11.4625,16.462 C12.0165,16.462 12.4625,16.016 12.4625,15.462 L12.4625,13.8741 L15.2925,16.7042 C15.4884,16.9001 15.7439,16.9991 15.9996,16.9991 "/>
</g>

<g fill="#323232" fill-opacity="1" stroke="none" transform="matrix(2.27273,0,0,2.27273,-13.6375,-13.6359)"
font-family="Noto Sans" font-size="10" font-weight="400" font-style="normal" 
opacity="0.3" >
<path vector-effect="none" fill-rule="nonzero" d="M15.9995,17.0002 C16.5535,17.0002 16.9995,16.5542 16.9995,16.0002 L16.9995,12.0002 C16.9995,11.4462 16.5535,11.0002 15.9995,11.0002 C15.4455,11.0002 14.9995,11.4462 14.9995,12.0002 L14.9995,13.5842 L12.1714,10.7561 C11.7797,10.3643 11.1491,10.3643 10.7573,10.7561 C10.3656,11.1478 10.3656,11.7784 10.7573,12.1701 L13.5874,15.0002 L11.9995,15.0002 C11.4455,15.0002 10.9995,15.4462 10.9995,16.0002 C10.9995,16.5542 11.4455,17.0002 11.9995,17.0002 L15.9995,17.0002"/>
</g>

<g fill="none" stroke="#000000" stroke-opacity="1" stroke-width="1" stroke-linecap="square" stroke-linejoin="bevel" transform="matrix(1,0,0,1,0,0)"
font-family="Noto Sans" font-size="10" font-weight="400" font-style="normal" 
>
</g>
</g>
</svg>
