<?xml version="1.0" encoding="UTF-8" standalone="no"?>
<svg viewBox="0 0 50 50"
 xmlns="http://www.w3.org/2000/svg" xmlns:xlink="http://www.w3.org/1999/xlink"  version="1.2" baseProfile="tiny">
<title>Qt SVG Document</title>
<desc>Generated with Qt</desc>
<defs>
</defs>
<g fill="none" stroke="black" stroke-width="1" fill-rule="evenodd" stroke-linecap="square" stroke-linejoin="bevel" >

<g fill="none" stroke="none" transform="matrix(2.27273,0,0,2.27273,0,-72.7273)"
font-family="Noto Sans" font-size="10" font-weight="400" font-style="normal" 
>
<rect x="0" y="32" width="22" height="22"/>
</g>

<g fill="#f0af19" fill-opacity="1" stroke="none" transform="matrix(2.27273,0,0,2.27273,0,-72.7273)"
font-family="Noto Sans" font-size="10" font-weight="400" font-style="normal" 
>
<path vector-effect="none" fill-rule="evenodd" d="M1,37 C1,34.7909 2.79086,33 5,33 L17,33 C19.2091,33 21,34.7909 21,37 L21,49 C21,51.2091 19.2091,53 17,53 L5,53 C2.79086,53 1,51.2091 1,49 L1,37"/>
</g>

<g fill="#ebebeb" fill-opacity="1" stroke="none" transform="matrix(2.27273,0,0,2.27273,0,-72.7273)"
font-family="Noto Sans" font-size="10" font-weight="400" font-style="normal" 
>
<path vector-effect="none" fill-rule="evenodd" d="M4,43 C4,42.1716 4.65814,41.5 5.47,41.5 L16.53,41.5 C17.3419,41.5 18,42.1716 18,43 C18,43.8284 17.3419,44.5 16.53,44.5 L5.47,44.5 C4.65814,44.5 4,43.8284 4,43 "/>
</g>

<g fill="none" stroke="#000000" stroke-opacity="1" stroke-width="1" stroke-linecap="square" stroke-linejoin="bevel" transform="matrix(1,0,0,1,0,0)"
font-family="Noto Sans" font-size="10" font-weight="400" font-style="normal" 
>
</g>
</g>
</svg>
